<?xml version="1.0" encoding="UTF-8" standalone="no"?>
<!DOCTYPE svg PUBLIC "-//W3C//DTD SVG 1.1//EN"
 "http://www.w3.org/Graphics/SVG/1.1/DTD/svg11.dtd">
<!-- Generated by graphviz version 2.26.3 (20100126.1600)
 -->
<!-- Title: G Pages: 1 -->
<svg width="444pt" height="260pt"
 viewBox="0.00 0.00 444.00 260.00" xmlns="http://www.w3.org/2000/svg" xmlns:xlink="http://www.w3.org/1999/xlink">
<g id="graph1" class="graph" transform="scale(1 1) rotate(0) translate(4 256)">
<title>G</title>
<polygon fill="white" stroke="white" points="-4,5 -4,-256 441,-256 441,5 -4,5"/>
<!-- IDLE -->
<g id="node1" class="node"><title>IDLE</title>
<ellipse fill="none" stroke="black" cx="248" cy="-234" rx="34.2406" ry="18"/>
<text text-anchor="middle" x="248" y="-229.9" font-family="Times Roman,serif" font-size="14.00">IDLE</text>
</g>
<!-- BC_COLLECT -->
<g id="node3" class="node"><title>BC_COLLECT</title>
<ellipse fill="none" stroke="black" cx="75" cy="-162" rx="75.2406" ry="18"/>
<text text-anchor="middle" x="75" y="-157.9" font-family="Times Roman,serif" font-size="14.00">BC_COLLECT</text>
</g>
<!-- IDLE&#45;&gt;BC_COLLECT -->
<g id="edge2" class="edge"><title>IDLE&#45;&gt;BC_COLLECT</title>
<path fill="none" stroke="black" d="M220.969,-222.75C194.615,-211.782 153.988,-194.874 122.28,-181.677"/>
<polygon fill="black" stroke="black" points="123.329,-178.323 112.752,-177.712 120.639,-184.785 123.329,-178.323"/>
</g>
<!-- PLU_COLLECT -->
<g id="node5" class="node"><title>PLU_COLLECT</title>
<ellipse fill="none" stroke="black" cx="248" cy="-162" rx="80.1057" ry="18"/>
<text text-anchor="middle" x="248" y="-157.9" font-family="Times Roman,serif" font-size="14.00">PLU_COLLECT</text>
</g>
<!-- IDLE&#45;&gt;PLU_COLLECT -->
<g id="edge4" class="edge"><title>IDLE&#45;&gt;PLU_COLLECT</title>
<path fill="none" stroke="black" d="M248,-215.831C248,-208.131 248,-198.974 248,-190.417"/>
<polygon fill="black" stroke="black" points="251.5,-190.413 248,-180.413 244.5,-190.413 251.5,-190.413"/>
</g>
<!-- DISPLAY_TOTAL -->
<g id="node7" class="node"><title>DISPLAY_TOTAL</title>
<ellipse fill="none" stroke="black" cx="154" cy="-90" rx="91.0296" ry="18"/>
<text text-anchor="middle" x="154" y="-85.9" font-family="Times Roman,serif" font-size="14.00">DISPLAY_TOTAL</text>
</g>
<!-- BC_COLLECT&#45;&gt;DISPLAY_TOTAL -->
<g id="edge6" class="edge"><title>BC_COLLECT&#45;&gt;DISPLAY_TOTAL</title>
<path fill="none" stroke="black" d="M94.1237,-144.571C103.972,-135.596 116.146,-124.5 126.941,-114.662"/>
<polygon fill="black" stroke="black" points="129.47,-117.092 134.504,-107.769 124.755,-111.918 129.47,-117.092"/>
</g>
<!-- PLU_COLLECT&#45;&gt;DISPLAY_TOTAL -->
<g id="edge8" class="edge"><title>PLU_COLLECT&#45;&gt;DISPLAY_TOTAL</title>
<path fill="none" stroke="black" d="M225.245,-144.571C213.211,-135.353 198.256,-123.898 185.16,-113.867"/>
<polygon fill="black" stroke="black" points="186.938,-110.82 176.871,-107.518 182.682,-116.378 186.938,-110.82"/>
</g>
<!-- STORNO_COLLECT -->
<g id="node10" class="node"><title>STORNO_COLLECT</title>
<ellipse fill="none" stroke="black" cx="154" cy="-18" rx="104.232" ry="18"/>
<text text-anchor="middle" x="154" y="-13.9" font-family="Times Roman,serif" font-size="14.00">STORNO_COLLECT</text>
</g>
<!-- DISPLAY_TOTAL&#45;&gt;STORNO_COLLECT -->
<g id="edge10" class="edge"><title>DISPLAY_TOTAL&#45;&gt;STORNO_COLLECT</title>
<path fill="none" stroke="black" d="M148.048,-71.8314C147.297,-64.131 147.076,-54.9743 147.385,-46.4166"/>
<polygon fill="black" stroke="black" points="150.879,-46.6161 148.024,-36.4133 143.893,-46.1697 150.879,-46.6161"/>
</g>
<!-- PAY_COLLECT -->
<g id="node13" class="node"><title>PAY_COLLECT</title>
<ellipse fill="none" stroke="black" cx="356" cy="-18" rx="80.1057" ry="18"/>
<text text-anchor="middle" x="356" y="-13.9" font-family="Times Roman,serif" font-size="14.00">PAY_COLLECT</text>
</g>
<!-- DISPLAY_TOTAL&#45;&gt;PAY_COLLECT -->
<g id="edge14" class="edge"><title>DISPLAY_TOTAL&#45;&gt;PAY_COLLECT</title>
<path fill="none" stroke="black" d="M198.33,-74.1993C229.273,-63.17 270.709,-48.4009 303.337,-36.7709"/>
<polygon fill="black" stroke="black" points="304.915,-39.9244 313.159,-33.27 302.564,-33.3307 304.915,-39.9244"/>
</g>
<!-- STORNO_COLLECT&#45;&gt;DISPLAY_TOTAL -->
<g id="edge12" class="edge"><title>STORNO_COLLECT&#45;&gt;DISPLAY_TOTAL</title>
<path fill="none" stroke="black" d="M159.976,-36.4133C160.707,-44.0593 160.92,-53.1084 160.615,-61.5726"/>
<polygon fill="black" stroke="black" points="157.105,-61.6264 159.952,-71.8314 164.09,-62.078 157.105,-61.6264"/>
</g>
<!-- PAY_COLLECT&#45;&gt;IDLE -->
<g id="edge16" class="edge"><title>PAY_COLLECT&#45;&gt;IDLE</title>
<path fill="none" stroke="black" d="M358.722,-36.2284C362.5,-68.1313 365.931,-134.973 337,-180 325.187,-198.386 304.676,-211.451 286.32,-220.12"/>
<polygon fill="black" stroke="black" points="284.702,-217.008 276.975,-224.257 287.536,-223.409 284.702,-217.008"/>
</g>
</g>
</svg>
