<?xml version="1.0" encoding="UTF-8" standalone="no"?>
<!DOCTYPE svg PUBLIC "-//W3C//DTD SVG 1.1//EN"
 "http://www.w3.org/Graphics/SVG/1.1/DTD/svg11.dtd">
<!-- Generated by graphviz version 2.26.3 (20100126.1600)
 -->
<!-- Title: G Pages: 1 -->
<svg width="974pt" height="314pt"
 viewBox="0.00 0.00 974.00 314.00" xmlns="http://www.w3.org/2000/svg" xmlns:xlink="http://www.w3.org/1999/xlink">
<g id="graph1" class="graph" transform="scale(1 1) rotate(0) translate(4 310)">
<title>G</title>
<polygon fill="white" stroke="white" points="-4,5 -4,-310 971,-310 971,5 -4,5"/>
<!-- IDLE -->
<g id="node1" class="node"><title>IDLE</title>
<polygon fill="none" stroke="black" points="448,-306 394,-306 394,-270 448,-270 448,-306"/>
<text text-anchor="middle" x="421" y="-283.9" font-family="Times Roman,serif" font-size="14.00">IDLE</text>
</g>
<!-- IDLE&#45;&gt;IDLE -->
<g id="edge2" class="edge"><title>IDLE&#45;&gt;IDLE</title>
<path fill="none" stroke="black" d="M448.241,-296.242C458.024,-296.419 466,-293.672 466,-288 466,-284.544 463.038,-282.173 458.51,-280.889"/>
<polygon fill="black" stroke="black" points="458.564,-277.374 448.241,-279.758 457.797,-284.332 458.564,-277.374"/>
<text text-anchor="middle" x="495" y="-283.9" font-family="Times Roman,serif" font-size="14.00">CANCEL</text>
</g>
<!-- BC_COLLECT -->
<g id="node4" class="node"><title>BC_COLLECT</title>
<ellipse fill="none" stroke="black" cx="256" cy="-198" rx="75.2406" ry="18"/>
<text text-anchor="middle" x="256" y="-193.9" font-family="Times Roman,serif" font-size="14.00">BC_COLLECT</text>
</g>
<!-- IDLE&#45;&gt;BC_COLLECT -->
<g id="edge4" class="edge"><title>IDLE&#45;&gt;BC_COLLECT</title>
<path fill="none" stroke="black" d="M393.754,-273.138C366.96,-258.524 325.777,-236.06 295.416,-219.5"/>
<polygon fill="black" stroke="black" points="296.824,-216.281 286.369,-214.565 293.472,-222.426 296.824,-216.281"/>
<text text-anchor="middle" x="365" y="-238.9" font-family="Times Roman,serif" font-size="14.00">0&#45;9</text>
</g>
<!-- PLU_COLLECT -->
<g id="node6" class="node"><title>PLU_COLLECT</title>
<ellipse fill="none" stroke="black" cx="80" cy="-18" rx="80.1057" ry="18"/>
<text text-anchor="middle" x="80" y="-13.9" font-family="Times Roman,serif" font-size="14.00">PLU_COLLECT</text>
</g>
<!-- IDLE&#45;&gt;PLU_COLLECT -->
<g id="edge6" class="edge"><title>IDLE&#45;&gt;PLU_COLLECT</title>
<path fill="none" stroke="black" d="M393.656,-283.052C336.28,-272.209 205.824,-244.994 172,-216 119.337,-170.858 94.9546,-89.0826 85.3303,-46.1115"/>
<polygon fill="black" stroke="black" points="88.698,-45.1211 83.1932,-36.0686 81.8513,-46.5781 88.698,-45.1211"/>
<text text-anchor="middle" x="143" y="-148.9" font-family="Times Roman,serif" font-size="14.00">PLU</text>
</g>
<!-- BC_COLLECT&#45;&gt;BC_COLLECT -->
<g id="edge8" class="edge"><title>BC_COLLECT&#45;&gt;BC_COLLECT</title>
<path fill="none" stroke="black" d="M323.297,-206.028C338.169,-205.274 349,-202.598 349,-198 349,-194.516 342.78,-192.135 333.295,-190.858"/>
<polygon fill="black" stroke="black" points="333.567,-187.369 323.297,-189.972 332.949,-194.341 333.567,-187.369"/>
<text text-anchor="middle" x="401" y="-193.9" font-family="Times Roman,serif" font-size="14.00">0&#45;9, Backspace</text>
</g>
<!-- DISPLAY_TOTAL -->
<g id="node9" class="node"><title>DISPLAY_TOTAL</title>
<ellipse fill="none" stroke="black" cx="366" cy="-108" rx="91.0296" ry="18"/>
<text text-anchor="middle" x="366" y="-103.9" font-family="Times Roman,serif" font-size="14.00">DISPLAY_TOTAL</text>
</g>
<!-- BC_COLLECT&#45;&gt;DISPLAY_TOTAL -->
<g id="edge10" class="edge"><title>BC_COLLECT&#45;&gt;DISPLAY_TOTAL</title>
<path fill="none" stroke="black" d="M251.386,-179.788C249.621,-168.435 249.545,-154.114 257,-144 262.387,-136.691 277.75,-130.024 295.304,-124.468"/>
<polygon fill="black" stroke="black" points="296.655,-127.717 305.233,-121.498 294.649,-121.01 296.655,-127.717"/>
<text text-anchor="middle" x="300.5" y="-148.9" font-family="Times Roman,serif" font-size="14.00">OK, CANCEL</text>
</g>
<!-- PLU_COLLECT&#45;&gt;PLU_COLLECT -->
<g id="edge12" class="edge"><title>PLU_COLLECT&#45;&gt;PLU_COLLECT</title>
<path fill="none" stroke="black" d="M151.789,-25.9836C167.009,-25.1729 178,-22.5117 178,-18 178,-14.581 171.688,-12.2246 162.007,-10.931"/>
<polygon fill="black" stroke="black" points="162.062,-7.42197 151.789,-10.0164 161.437,-14.3941 162.062,-7.42197"/>
<text text-anchor="middle" x="230" y="-13.9" font-family="Times Roman,serif" font-size="14.00">0&#45;9, Backspace</text>
</g>
<!-- PLU_COLLECT&#45;&gt;DISPLAY_TOTAL -->
<g id="edge14" class="edge"><title>PLU_COLLECT&#45;&gt;DISPLAY_TOTAL</title>
<path fill="none" stroke="black" d="M116.094,-34.1389C149.44,-48.9798 195.125,-69.111 204,-72 231.084,-80.816 261.408,-88.1916 288.432,-93.9247"/>
<polygon fill="black" stroke="black" points="287.723,-97.3521 298.226,-95.9621 289.148,-90.4988 287.723,-97.3521"/>
<text text-anchor="middle" x="261" y="-58.9" font-family="Times Roman,serif" font-size="14.00">ENTER, CANCEL</text>
</g>
<!-- DISPLAY_TOTAL&#45;&gt;IDLE -->
<g id="edge16" class="edge"><title>DISPLAY_TOTAL&#45;&gt;IDLE</title>
<path fill="none" stroke="black" d="M402.607,-124.728C424.181,-136.751 449.608,-155.217 462,-180 475.52,-207.041 458.902,-239.683 442.951,-261.954"/>
<polygon fill="black" stroke="black" points="440.151,-259.854 436.935,-269.949 445.744,-264.063 440.151,-259.854"/>
<text text-anchor="middle" x="495" y="-193.9" font-family="Times Roman,serif" font-size="14.00">CANCEL</text>
</g>
<!-- DISPLAY_TOTAL&#45;&gt;BC_COLLECT -->
<g id="edge20" class="edge"><title>DISPLAY_TOTAL&#45;&gt;BC_COLLECT</title>
<path fill="none" stroke="black" d="M362.442,-126.05C359.329,-137.627 353.728,-152.258 344,-162 336.32,-169.691 326.77,-175.807 316.818,-180.65"/>
<polygon fill="black" stroke="black" points="315.322,-177.484 307.609,-184.748 318.168,-183.88 315.322,-177.484"/>
<text text-anchor="middle" x="367" y="-148.9" font-family="Times Roman,serif" font-size="14.00">0&#45;9</text>
</g>
<!-- DISPLAY_TOTAL&#45;&gt;PLU_COLLECT -->
<g id="edge22" class="edge"><title>DISPLAY_TOTAL&#45;&gt;PLU_COLLECT</title>
<path fill="none" stroke="black" d="M282.73,-100.707C226.75,-94.7552 158.675,-85.1721 133,-72 119.868,-65.2627 108.053,-54.0371 98.9298,-43.5609"/>
<polygon fill="black" stroke="black" points="101.569,-41.2603 92.5001,-35.7825 96.1736,-45.7201 101.569,-41.2603"/>
<text text-anchor="middle" x="147" y="-58.9" font-family="Times Roman,serif" font-size="14.00">PLU</text>
</g>
<!-- STORNO_COLLECT -->
<g id="node14" class="node"><title>STORNO_COLLECT</title>
<ellipse fill="none" stroke="black" cx="404" cy="-18" rx="104.232" ry="18"/>
<text text-anchor="middle" x="404" y="-13.9" font-family="Times Roman,serif" font-size="14.00">STORNO_COLLECT</text>
</g>
<!-- DISPLAY_TOTAL&#45;&gt;STORNO_COLLECT -->
<g id="edge18" class="edge"><title>DISPLAY_TOTAL&#45;&gt;STORNO_COLLECT</title>
<path fill="none" stroke="black" d="M339.675,-90.7454C327.26,-80.3828 316.785,-66.7708 325,-54 328.835,-48.0382 333.927,-43.0519 339.685,-38.8839"/>
<polygon fill="black" stroke="black" points="341.912,-41.619 348.529,-33.3445 338.196,-35.6866 341.912,-41.619"/>
<text text-anchor="middle" x="355.5" y="-58.9" font-family="Times Roman,serif" font-size="14.00">STORNO</text>
</g>
<!-- PAY_COLLECT -->
<g id="node18" class="node"><title>PAY_COLLECT</title>
<ellipse fill="none" stroke="black" cx="764" cy="-18" rx="80.1057" ry="18"/>
<text text-anchor="middle" x="764" y="-13.9" font-family="Times Roman,serif" font-size="14.00">PAY_COLLECT</text>
</g>
<!-- DISPLAY_TOTAL&#45;&gt;PAY_COLLECT -->
<g id="edge24" class="edge"><title>DISPLAY_TOTAL&#45;&gt;PAY_COLLECT</title>
<path fill="none" stroke="black" d="M430.183,-95.1276C462.818,-88.4597 503.076,-80.0466 539,-72 593.484,-59.796 655.129,-44.9264 700.099,-33.8828"/>
<polygon fill="black" stroke="black" points="701.132,-37.2333 710.006,-31.4456 699.459,-30.4359 701.132,-37.2333"/>
<text text-anchor="middle" x="626.5" y="-58.9" font-family="Times Roman,serif" font-size="14.00">PAY</text>
</g>
<!-- STORNO_COLLECT&#45;&gt;DISPLAY_TOTAL -->
<g id="edge28" class="edge"><title>STORNO_COLLECT&#45;&gt;DISPLAY_TOTAL</title>
<path fill="none" stroke="black" d="M398.82,-36.3162C395.593,-46.9217 391.093,-60.4217 386,-72 384.676,-75.0105 383.182,-78.1014 381.621,-81.1467"/>
<polygon fill="black" stroke="black" points="378.503,-79.555 376.847,-90.0195 384.667,-82.8722 378.503,-79.555"/>
<text text-anchor="middle" x="463.5" y="-58.9" font-family="Times Roman,serif" font-size="14.00">OK, ENTER, CANCEL</text>
</g>
<!-- STORNO_COLLECT&#45;&gt;STORNO_COLLECT -->
<g id="edge26" class="edge"><title>STORNO_COLLECT&#45;&gt;STORNO_COLLECT</title>
<path fill="none" stroke="black" d="M498.121,-25.7344C514.562,-24.7031 526,-22.125 526,-18 526,-14.7773 519.019,-12.4988 508.125,-11.1644"/>
<polygon fill="black" stroke="black" points="508.394,-7.67461 498.121,-10.2656 507.768,-14.6465 508.394,-7.67461"/>
<text text-anchor="middle" x="596" y="-13.9" font-family="Times Roman,serif" font-size="14.00">0&#45;9, PLU, Backspace</text>
</g>
<!-- PAY_COLLECT&#45;&gt;IDLE -->
<g id="edge34" class="edge"><title>PAY_COLLECT&#45;&gt;IDLE</title>
<path fill="none" stroke="black" d="M760.673,-36.1902C757.922,-47.3948 753.11,-61.5624 745,-72 665.733,-174.017 524.262,-244.09 457.627,-273.062"/>
<polygon fill="black" stroke="black" points="456.167,-269.88 448.355,-277.037 458.926,-276.314 456.167,-269.88"/>
<text text-anchor="middle" x="711.5" y="-148.9" font-family="Times Roman,serif" font-size="14.00">OK, ENTER</text>
</g>
<!-- PAY_COLLECT&#45;&gt;DISPLAY_TOTAL -->
<g id="edge32" class="edge"><title>PAY_COLLECT&#45;&gt;DISPLAY_TOTAL</title>
<path fill="none" stroke="black" d="M729.134,-34.318C696.913,-49.295 652.738,-69.5269 644,-72 585.6,-88.5289 518.125,-97.497 464.275,-102.348"/>
<polygon fill="black" stroke="black" points="463.7,-98.885 454.04,-103.236 464.305,-105.859 463.7,-98.885"/>
<text text-anchor="middle" x="714" y="-58.9" font-family="Times Roman,serif" font-size="14.00">CANCEL</text>
</g>
<!-- PAY_COLLECT&#45;&gt;PAY_COLLECT -->
<g id="edge30" class="edge"><title>PAY_COLLECT&#45;&gt;PAY_COLLECT</title>
<path fill="none" stroke="black" d="M835.789,-25.9836C851.009,-25.1729 862,-22.5117 862,-18 862,-14.581 855.688,-12.2246 846.007,-10.931"/>
<polygon fill="black" stroke="black" points="846.062,-7.42197 835.789,-10.0164 845.437,-14.3941 846.062,-7.42197"/>
<text text-anchor="middle" x="914" y="-13.9" font-family="Times Roman,serif" font-size="14.00">0&#45;9, Backspace</text>
</g>
</g>
</svg>
